<svg xmlns="http://www.w3.org/2000/svg" viewBox="0 0 512 512" width="512" height="512">
  <!-- Background -->
  <rect width="512" height="512" rx="112" fill="#007AFF"/>
  <!-- Notepad body -->
  <rect x="120" y="140" width="272" height="320" rx="24" fill="white" opacity="0.95"/>
  <!-- Lines -->
  <rect x="156" y="210" width="200" height="12" rx="6" fill="#007AFF" opacity="0.3"/>
  <rect x="156" y="244" width="160" height="12" rx="6" fill="#007AFF" opacity="0.3"/>
  <rect x="156" y="278" width="180" height="12" rx="6" fill="#007AFF" opacity="0.3"/>
  <rect x="156" y="312" width="140" height="12" rx="6" fill="#007AFF" opacity="0.3"/>
  <!-- Checkmarks -->
  <circle cx="148" cy="216" r="10" fill="#34C759"/>
  <polyline points="143,216 147,220 154,212" stroke="white" stroke-width="2.5" stroke-linecap="round" stroke-linejoin="round" fill="none"/>
  <circle cx="148" cy="250" r="10" fill="#34C759"/>
  <polyline points="143,250 147,254 154,246" stroke="white" stroke-width="2.5" stroke-linecap="round" stroke-linejoin="round" fill="none"/>
  <!-- Flag icon -->
  <path d="M148 278 L148 300 M148 278 L164 282 L148 286" stroke="#FF9500" stroke-width="3" stroke-linecap="round" stroke-linejoin="round" fill="none"/>
  <!-- Spiral binding -->
  <circle cx="256" cy="140" r="14" fill="none" stroke="#007AFF" stroke-width="8"/>
  <rect x="242" y="126" width="28" height="14" fill="#007AFF"/>
  <rect x="242" y="140" width="28" height="14" fill="white" opacity="0.95"/>
</svg>
